<svg width="227" height="46" viewBox="0 0 227 46" fill="none" xmlns="http://www.w3.org/2000/svg">
<path d="M83 0C70.2973 0 60 10.2973 60 23C60 35.7027 70.2973 46 83 46C95.7027 46 106 35.7027 106 23C106 10.2973 95.7027 0 83 0ZM91.8454 25.9493C91.8454 25.9493 93.8795 27.957 94.3802 28.889C94.3946 28.9081 94.4018 28.9273 94.4066 28.9369C94.6102 29.2795 94.6581 29.5454 94.5575 29.7443C94.3898 30.0749 93.8148 30.2378 93.6183 30.2522H90.0246C89.7754 30.2522 89.2531 30.1875 88.6206 29.7515C88.1343 29.4112 87.6551 28.853 87.1879 28.3092C86.4907 27.4994 85.887 26.7998 85.2784 26.7998C85.2011 26.7997 85.1243 26.8118 85.0508 26.8357C84.5908 26.9843 84.0015 27.6407 84.0015 29.3897C84.0015 29.9359 83.5702 30.2498 83.2659 30.2498H81.62C81.0594 30.2498 78.1389 30.0533 75.5514 27.3245C72.3841 23.9823 69.533 17.2787 69.5091 17.2165C69.3294 16.7828 69.7007 16.5504 70.1056 16.5504H73.7353C74.2193 16.5504 74.3774 16.8451 74.4876 17.1062C74.617 17.4105 75.0914 18.6204 75.87 19.9812C77.1326 22.1998 77.9065 23.1006 78.527 23.1006C78.6433 23.0993 78.7576 23.0697 78.86 23.0144C79.6698 22.564 79.5189 19.677 79.4829 19.078C79.4829 18.9654 79.4805 17.7867 79.066 17.2212C78.769 16.8116 78.2634 16.6558 77.9568 16.5983C78.0809 16.4271 78.2444 16.2882 78.4335 16.1934C78.9894 15.9155 79.9908 15.8748 80.9851 15.8748H81.5385C82.6167 15.8892 82.8946 15.9586 83.2851 16.0569C84.0757 16.2461 84.0925 16.7565 84.023 18.503C84.0015 18.999 83.9799 19.5596 83.9799 20.2208C83.9799 20.3646 83.9727 20.5179 83.9727 20.6808C83.9487 21.5697 83.92 22.5783 84.5477 22.9928C84.6296 23.0442 84.7242 23.0715 84.8208 23.0719C85.0389 23.0719 85.6953 23.0719 87.473 20.022C88.0213 19.0403 88.4977 18.0202 88.8985 16.9697C88.9345 16.9074 89.0399 16.7157 89.1645 16.6415C89.2564 16.5946 89.3584 16.5707 89.4616 16.572H93.7285C94.1933 16.572 94.512 16.6415 94.5719 16.8211C94.6773 17.1062 94.5527 17.9759 92.6049 20.6138L91.7352 21.7614C89.9695 24.0757 89.9695 24.1931 91.8454 25.9493Z" fill="#C4C4C4"/>
<path d="M149.188 23C149.188 24.9062 148.43 26.7344 147.082 28.0823C145.734 29.4302 143.906 30.1875 142 30.1875C140.094 30.1875 138.266 29.4302 136.918 28.0823C135.57 26.7344 134.812 24.9062 134.812 23C134.812 22.5903 134.856 22.1902 134.93 21.8021H132.417V31.3782C132.417 32.0443 132.956 32.5833 133.622 32.5833H150.381C150.7 32.5827 151.006 32.4555 151.231 32.2295C151.457 32.0036 151.583 31.6974 151.583 31.3782V21.8021H149.07C149.144 22.1902 149.188 22.5903 149.188 23ZM142 27.7917C142.629 27.7915 143.253 27.6674 143.834 27.4264C144.415 27.1854 144.944 26.8322 145.389 26.387C145.834 25.9419 146.187 25.4134 146.427 24.8318C146.668 24.2503 146.792 23.627 146.792 22.9976C146.792 22.3682 146.667 21.745 146.426 21.1635C146.185 20.5821 145.832 20.0538 145.387 19.6089C144.942 19.1639 144.413 18.811 143.832 18.5703C143.25 18.3296 142.627 18.2058 141.998 18.2059C140.726 18.2063 139.507 18.7115 138.609 19.6106C137.71 20.5096 137.206 21.7289 137.206 23C137.206 24.2711 137.712 25.4901 138.611 26.3887C139.51 27.2873 140.729 27.792 142 27.7917ZM147.75 17.9688H150.623C150.813 17.9688 150.997 17.8931 151.132 17.7584C151.267 17.6237 151.343 17.4408 151.344 17.25V14.3774C151.344 14.1861 151.268 14.0027 151.133 13.8675C150.997 13.7322 150.814 13.6562 150.623 13.6562H147.75C147.559 13.6562 147.375 13.7322 147.24 13.8675C147.105 14.0027 147.029 14.1861 147.029 14.3774V17.25C147.031 17.6453 147.355 17.9688 147.75 17.9688ZM142 0C135.9 0 130.05 2.42321 125.737 6.73654C121.423 11.0499 119 16.9 119 23C119 29.1 121.423 34.9501 125.737 39.2635C130.05 43.5768 135.9 46 142 46C145.02 46 148.011 45.4051 150.802 44.2492C153.592 43.0934 156.128 41.3992 158.263 39.2635C160.399 37.1277 162.093 34.5922 163.249 31.8017C164.405 29.0112 165 26.0204 165 23C165 19.9796 164.405 16.9888 163.249 14.1983C162.093 11.4078 160.399 8.87229 158.263 6.73654C156.128 4.6008 153.592 2.90663 150.802 1.75077C148.011 0.594913 145.02 0 142 0ZM153.979 32.3174C153.979 33.7812 152.781 34.9792 151.317 34.9792H132.683C131.219 34.9792 130.021 33.7812 130.021 32.3174V13.6826C130.021 12.2187 131.219 11.0208 132.683 11.0208H151.317C152.781 11.0208 153.979 12.2187 153.979 13.6826V32.3174Z" fill="#C6C2C1"/>
<path d="M23 0C10.2973 0 0 10.2973 0 23C0 35.7027 10.2973 46 23 46C35.7027 46 46 35.7027 46 23C46 10.2973 35.7027 0 23 0ZM28.4481 15.894H24.9909C24.5813 15.894 24.126 16.433 24.126 17.1494V19.6458H28.4505L27.7965 23.206H24.126V33.8939H20.0459V23.206H16.3444V19.6458H20.0459V17.5519C20.0459 14.5475 22.1303 12.1061 24.9909 12.1061H28.4481V15.894Z" fill="#C4C4C4"/>
<path fill-rule="evenodd" clip-rule="evenodd" d="M203.791 45.5819C216.378 45.5819 226.582 35.378 226.582 22.7909C226.582 10.2039 216.378 0 203.791 0C191.204 0 181 10.2039 181 22.7909C181 35.378 191.204 45.5819 203.791 45.5819ZM205.538 18.432C205.538 21.4099 203.078 21.5992 203.078 21.5992C206.256 21.5992 206.105 25.5688 206.099 25.7287C206.098 25.732 206.098 25.7337 206.098 25.7337C206.098 30.8149 200.974 30.6487 200.974 30.6487H192.582V14H200.974C203.525 14 205.538 15.4503 205.538 18.432ZM200.974 16.9573H196.28V20.6731H200.683C201.445 20.6731 202.116 20.422 202.116 18.6883C202.116 16.9573 200.974 16.9573 200.974 16.9573ZM196.28 27.6889H200.736C201.404 27.6747 202.675 27.4725 202.675 25.5251C202.675 23.2157 200.974 23.2389 200.974 23.2389H196.28V27.6889ZM206.732 24.6312C206.732 24.6312 206.726 18.2337 212.93 18.2337C219.459 18.2337 218.538 25.4607 218.537 25.4619H210.185C210.185 28.5557 213.025 28.36 213.025 28.36C215.704 28.36 215.61 26.5683 215.61 26.5683H218.447C218.447 31.3224 212.93 30.9952 212.93 30.9952C206.308 30.9952 206.732 24.6312 206.732 24.6312ZM210.157 23.2389H215.454C215.454 23.2389 215.485 20.6731 212.994 20.6731C210.502 20.6731 210.157 23.2389 210.157 23.2389ZM209.46 14.9776H216.113V17.0307H209.46V14.9776Z" fill="#C4C4C4"/>
</svg>
